<svg version="1.1" xmlns="http://www.w3.org/2000/svg" width="2048" height="2048">

<path d="M0 0 C-1.26449331 2.52898662 -2.20659778 2.72133757 -4.76171875 3.84765625 C-5.54393799 4.20077881 -6.32615723 4.55390137 -7.13208008 4.91772461 C-7.97536865 5.29550049 -8.81865723 5.67327637 -9.6875 6.0625 C-18.33161523 10.05128371 -26.1945159 14.57395898 -34 20 C-34.86334961 20.58950439 -34.86334961 20.58950439 -35.74414062 21.19091797 C-44.63602652 27.27161502 -52.88761918 33.92090346 -61 41 C-61.70382812 41.60328125 -62.40765625 42.2065625 -63.1328125 42.828125 C-74.356642 52.50222072 -85.42844788 62.56560299 -95.09375 73.8125 C-97.30945648 76.35511399 -99.59098592 78.83110198 -101.875 81.3125 C-106.79181449 86.71656638 -111.46285127 92.27518587 -116 98 C-116.76570313 98.96486328 -116.76570313 98.96486328 -117.546875 99.94921875 C-146.82450465 136.95668987 -171.85317105 176.89658695 -194.9375 218 C-195.833479 219.59352295 -195.833479 219.59352295 -196.74755859 221.21923828 C-197.2936377 222.19876465 -197.8397168 223.17829102 -198.40234375 224.1875 C-199.12151978 225.47720703 -199.12151978 225.47720703 -199.85522461 226.79296875 C-201.1116359 229.07474153 -201.1116359 229.07474153 -202 232 C-201.70343506 231.50709473 -201.40687012 231.01418945 -201.10131836 230.50634766 C-195.654891 221.47288869 -190.17778645 212.55579387 -184 204 C-183.11923541 202.74088122 -182.24051374 201.48033215 -181.36328125 200.21875 C-172.11015982 186.93937878 -162.4372441 173.99435062 -152.1015625 161.53515625 C-150.66640332 159.80389546 -149.24506847 158.06110501 -147.8359375 156.30859375 C-142.95524413 150.24653114 -137.8461277 144.47348312 -132.5546875 138.7734375 C-130.48748759 136.52922965 -128.4796492 134.25814141 -126.5 131.9375 C-123.08406123 127.98000996 -119.3832483 124.32708962 -115.64257812 120.67944336 C-112.97993336 118.10082131 -112.97993336 118.10082131 -111 115 C-110.34 115 -109.68 115 -109 115 C-109 114.34 -109 113.68 -109 113 C-107.7421875 111.73046875 -107.7421875 111.73046875 -105.875 110.1875 C-102.49029495 107.317989 -99.220814 104.35979111 -95.99023438 101.32006836 C-54.17714274 62.0042104 -1.73536304 30.9529382 55 20 C56.08925781 19.77441406 57.17851563 19.54882812 58.30078125 19.31640625 C68.14339284 17.50296447 78.03359356 17.82114126 88 18 C88 18.66 88 19.32 88 20 C87.46375 20.23332031 86.9275 20.46664062 86.375 20.70703125 C66.89388559 29.77472102 50.13398331 44.7069881 34.71142578 59.39013672 C31.49575542 62.414977 28.1760076 65.32152098 24.85546875 68.23046875 C22.80217064 70.0591679 22.80217064 70.0591679 21 73 C20.34 73 19.68 73 19 73 C19 73.66 19 74.32 19 75 C18.34 75 17.68 75 17 75 C16.59031982 75.89404541 16.59031982 75.89404541 16.17236328 76.80615234 C15.03614671 78.93235853 13.9052745 80.37414803 12.2421875 82.1015625 C11.43382446 82.9522229 11.43382446 82.9522229 10.60913086 83.82006836 C9.75073608 84.71350952 9.75073608 84.71350952 8.875 85.625 C4.38694971 90.37918143 0.08567683 95.17363232 -3.9296875 100.33984375 C-5.49672522 102.35333938 -7.08261572 104.34004018 -8.6953125 106.31640625 C-32.89392323 136.03061055 -53.87098903 168.83588323 -73 202 C-73.46374023 202.80131348 -73.92748047 203.60262695 -74.40527344 204.42822266 C-100.91081549 250.27732162 -125.22880737 297.71913121 -147 346 C-147.63832764 347.41273193 -147.63832764 347.41273193 -148.28955078 348.85400391 C-150.57797908 353.92306898 -150.57797908 353.92306898 -152.84887695 359 C-154.96375919 363.74511509 -157.14116788 368.45909778 -159.34375 373.1640625 C-162.8260527 380.60529657 -166.24414177 388.07458833 -169.625 395.5625 C-169.92302521 396.22229858 -170.22105042 396.88209717 -170.52810669 397.56188965 C-177.18093029 412.30478723 -183.6210819 427.13684203 -190 442 C-190.61099579 443.42285449 -191.22199856 444.84570598 -191.83300781 446.26855469 C-194.70477484 452.95769724 -197.57303208 459.64832551 -200.43562317 466.34140015 C-202.97538998 472.27958769 -205.5220262 478.21450653 -208.08984375 484.140625 C-214.12844052 498.10004382 -219.92192481 512.14076271 -225.60604858 526.24719238 C-229.59011209 536.12945603 -233.65112844 545.96030736 -237.95288086 555.70947266 C-242.32232962 565.64972638 -246.50063761 575.66936354 -250.6875 585.6875 C-251.07516541 586.61490997 -251.46283081 587.54231995 -251.86224365 588.49783325 C-256.60125859 599.838102 -261.32711236 611.18385007 -266.05078125 622.53051758 C-266.67968267 624.0411804 -267.30858887 625.55184123 -267.9375 627.0625 C-268.24655273 627.80486908 -268.55560547 628.54723816 -268.87402344 629.31210327 C-274.08975933 641.83842261 -279.34110728 654.34903739 -284.65527344 666.83398438 C-286.06027967 670.14192206 -287.45601871 673.45368538 -288.8515625 676.765625 C-303.16658061 710.61366251 -318.24658774 744.94383314 -338 776 C-338.69351563 777.09828125 -339.38703125 778.1965625 -340.1015625 779.328125 C-364.59408852 817.02444076 -397.9068461 851.14975039 -443 862 C-444.07282227 862.25894043 -445.14564453 862.51788086 -446.25097656 862.78466797 C-455.67076229 864.87424219 -464.62004117 865.48539808 -474.25 865.375 C-475.32834106 865.36851944 -475.32834106 865.36851944 -476.4284668 865.36190796 C-487.82817627 865.28182187 -498.88019756 864.64858301 -510 862 C-511.03205566 861.76651855 -511.03205566 861.76651855 -512.08496094 861.52832031 C-546.86658257 853.40450099 -577.2253245 829.75187067 -600 803 C-600.845625 802.04222656 -601.69125 801.08445312 -602.5625 800.09765625 C-627.0184022 772.17691173 -644.48350902 738.39795672 -661.21875 705.49951172 C-662.34022605 703.29621708 -663.46478862 701.0944881 -664.59375 698.89501953 C-671.91310672 684.63513999 -678.64695422 670.15026111 -685.23014832 655.54115295 C-689.75296727 645.5065533 -694.39177881 635.52934313 -699.08154297 625.57177734 C-702.07865894 619.18931794 -704.998632 612.78165107 -707.84765625 606.33203125 C-711.72308241 597.56276126 -715.75137868 588.86922026 -719.80712891 580.18218994 C-728.38853551 561.78599711 -736.73487257 543.29584268 -744.91943359 524.72021484 C-747.1253039 519.71379354 -749.33779379 514.71030977 -751.55078125 509.70703125 C-757.60132908 496.02463331 -763.64863445 482.34080759 -769.67866516 468.64935303 C-779.37095189 446.6438315 -789.13279921 424.6752319 -799.16448975 402.82208252 C-799.97168327 401.06175319 -800.77617432 399.30018544 -801.58056641 397.53857422 C-819.8096196 357.63675056 -838.9263501 317.93272916 -861 280 C-861.49032715 279.15179687 -861.9806543 278.30359375 -862.48583984 277.4296875 C-876.46078454 253.33141783 -892.33872634 230.3528446 -910.75 209.42919922 C-911.77444477 208.25789069 -912.78053247 207.07055015 -913.78125 205.87890625 C-923.02703281 194.91133225 -933.55729705 184.63811889 -945 176 C-945.51852539 175.60506348 -946.03705078 175.21012695 -946.57128906 174.80322266 C-960.01603817 164.63042577 -974.14284573 156.74229175 -990 151 C-991.05058594 150.60941406 -992.10117187 150.21882812 -993.18359375 149.81640625 C-1007.19480943 144.84233358 -1021.28238958 144.48325309 -1036 144 C-1033.67847981 141.67847981 -1031.84165785 141.00969463 -1028.78515625 139.828125 C-1027.71644287 139.41393311 -1026.64772949 138.99974121 -1025.54663086 138.57299805 C-1024.39686768 138.13640869 -1023.24710449 137.69981934 -1022.0625 137.25 C-1020.88115479 136.80116455 -1019.69980957 136.3523291 -1018.48266602 135.88989258 C-991.20927419 125.62607086 -963.91255104 120.5303204 -935 117 C-934.33590118 116.91305374 -933.67180237 116.82610748 -932.98757935 116.73652649 C-927.00290577 115.99812425 -921.08115761 115.80870164 -915.0546875 115.76171875 C-913.50082588 115.74716393 -913.50082588 115.74716393 -911.91557312 115.73231506 C-908.56867573 115.70742741 -905.22198067 115.69478949 -901.875 115.6875 C-900.16242508 115.68357239 -900.16242508 115.68357239 -898.41525269 115.67956543 C-879.92104612 115.67502168 -862.21731827 116.70408455 -844 120 C-843.05866211 120.16016602 -842.11732422 120.32033203 -841.14746094 120.48535156 C-778.58091431 131.19739935 -724.10427093 161.25804716 -678.0625 204.25 C-677.36447266 204.8994458 -676.66644531 205.5488916 -675.94726562 206.21801758 C-671.32815417 210.57749777 -667.11352812 215.16438051 -663 220 C-662.01544762 221.12988727 -661.02982119 222.25883982 -660.04296875 223.38671875 C-653.39879502 231.04487657 -647.04546001 238.85927575 -641 247 C-640.50387207 247.66483398 -640.00774414 248.32966797 -639.49658203 249.01464844 C-620.87970088 274.05489794 -605.00740478 301.02837904 -591.41918945 329.10302734 C-590.35362429 331.27815142 -589.27458223 333.44333405 -588.18041992 335.60400391 C-583.25690616 345.33388822 -578.63064879 355.16705292 -574.1875 365.125 C-573.83061096 365.92258728 -573.47372192 366.72017456 -573.10601807 367.54193115 C-564.82128478 386.09117693 -557.10429273 404.87045869 -549.41151428 423.67097473 C-540.33480666 445.85355447 -531.17498632 467.9982338 -521.39208984 489.88037109 C-519.89488196 493.23556618 -518.41012335 496.59612593 -516.92578125 499.95703125 C-505.68183493 525.33158265 -493.50182352 550.22195499 -481 575 C-472.25836742 562.18008608 -464.97185194 548.85132749 -458 535 C-457.63310059 534.27458008 -457.26620117 533.54916016 -456.88818359 532.80175781 C-455.28243263 529.62470397 -453.6907701 526.44117708 -452.11328125 523.25 C-450.50904528 520.00867681 -448.87405611 516.78404247 -447.23046875 513.5625 C-440.28503383 499.90359728 -433.90103779 486.08523268 -427.86132812 472.0045166 C-426.92341306 469.82176388 -425.98160116 467.64072103 -425.0390625 465.45996094 C-415.58202745 443.57675135 -406.31347288 421.6217688 -397.20933533 399.58958435 C-390.52778407 383.42156936 -383.77542607 367.28404856 -376.92913818 351.18505859 C-376.32088501 349.75462678 -375.71315776 348.32397119 -375.10601807 346.89306641 C-362.62341465 317.48281367 -349.19005441 288.37613684 -333.44189453 260.55566406 C-331.90124247 257.82495872 -330.3852474 255.08141672 -328.87109375 252.3359375 C-321.41604446 238.8895797 -313.41294259 225.86669175 -305 213 C-304.59942383 212.38592285 -304.19884766 211.7718457 -303.78613281 211.13916016 C-301.5591995 207.73513353 -299.28952216 204.3621723 -297 201 C-296.58685547 200.38995117 -296.17371094 199.77990234 -295.74804688 199.15136719 C-289.72124632 190.2585845 -283.55249567 181.51630001 -277 173 C-276.48566406 172.32710937 -275.97132813 171.65421875 -275.44140625 170.9609375 C-259.77445012 150.48172926 -242.75999234 131.69370131 -224.5625 113.4375 C-223.17732178 112.0453125 -223.17732178 112.0453125 -221.76416016 110.625 C-217.19770103 106.06928548 -212.57955284 101.64608121 -207.68286133 97.4465332 C-205.58846265 95.64625579 -203.58082638 93.75978872 -201.5625 91.875 C-194.41784576 85.43935725 -186.70811816 79.73562032 -179 74 C-178.2668457 73.45263184 -177.53369141 72.90526367 -176.77832031 72.34130859 C-131.81988281 38.90583196 -81.20476408 14.87378874 -26.5 2.625 C-25.35474854 2.36170898 -24.20949707 2.09841797 -23.02954102 1.82714844 C-15.25776216 0.15545945 -7.93989168 -0.30928267 0 0 Z " fill="#432FD9" transform="translate(1498,591)" data-index="1"></path>
</svg>